<svg width="154" height="144" viewBox="0 0 154 144" fill="none" xmlns="http://www.w3.org/2000/svg">
<path fill-rule="evenodd" clip-rule="evenodd" d="M3.5 47.5C4.5 45 19.5 15.8883 32 10.8883C44.5 5.88828 78 -8.61172 116.5 10.8883C155 30.3883 159 48.7766 147.5 91.3883C136 134 143 139.388 136 142.388C129 145.388 118 139.388 109.5 127.888C101 116.388 71.5 113.888 61 114.388C50.5 114.888 33 123.888 19 111.888C5 99.8883 1 86.3883 1 73.3883C1 62.9883 2.5 51.5 3.5 47.5ZM39.5 37C26.7 43.8 23.1667 58.5 24.5 66.5C26 70.3333 30.7236 80.1278 34 82C37.5 84 62.8333 88.3333 71.5 87L61 27.3883C59.3333 27.3883 52.3 30.2 39.5 37ZM83.5 41.3883C84.5 36.055 87.8 25.3883 93 25.3883C96.5 23.5 102.7 25.7883 111.5 27.3883C120.3 28.9883 127 37.3883 128.5 41.3883C127.5 42.3883 124.9 44.8883 122.5 46.8883C120.1 48.8883 95 70 83.5 82C82.5 75.8333 82.3 61.7883 83.5 41.3883ZM106 87C108 82.2 121 73.1667 125.5 69.5C127.5 69.5 132 71 132 75C132 80 130.5 87.3883 128.5 91.3883C126.5 95.3883 125.5 98.3883 120.5 99.3883C115.5 100.388 109.5 96.8883 109.5 96.3883C109.5 95.8883 103.5 93 106 87Z" fill="white" stroke="white"/>
</svg>
