<svg width="1442" height="1281" viewBox="0 0 1442 1281" fill="none" xmlns="http://www.w3.org/2000/svg">
<g style="mix-blend-mode:overlay" filter="url(#filter0_f_102_174)">
<ellipse cx="720.243" cy="1219.24" rx="658.243" ry="11.2379" fill="black"/>
</g>
<g style="mix-blend-mode:overlay" filter="url(#filter1_f_102_174)">
<ellipse cx="719.656" cy="1228.24" rx="468.656" ry="11.2379" fill="black"/>
</g>
<g style="mix-blend-mode:overlay" filter="url(#filter2_f_102_174)">
<ellipse cx="720.5" cy="1250" rx="177.5" ry="11" fill="black"/>
</g>
<rect x="553" y="1223" width="44" height="7" rx="1" fill="url(#paint0_linear_102_174)"/>
<rect x="843" y="1223" width="44" height="7" rx="1" fill="url(#paint1_linear_102_174)"/>
<rect width="346" height="223" transform="matrix(-1 0 0 1 893 993)" fill="url(#paint2_linear_102_174)"/>
<rect width="1440" height="997" rx="24" transform="matrix(-1 0 0 1 1442 1)" fill="#505254"/>
<rect width="1440" height="999" rx="24" transform="matrix(-1 0 0 1 1440 0)" fill="url(#paint3_linear_102_174)"/>
<path d="M1440 851H0V975C0 988.255 10.7452 999 24 999H1416C1429.25 999 1440 988.255 1440 975V851Z" fill="url(#paint4_linear_102_174)"/>
<circle cx="8" cy="8" r="8" transform="matrix(-1 0 0 1 752 9)" fill="#343747"/>
<g filter="url(#filter3_i_102_174)">
<circle cx="4" cy="4" r="4" transform="matrix(-1 0 0 1 748 13)" fill="url(#paint5_radial_102_174)"/>
</g>
<rect width="346" height="15" transform="matrix(-1 0 0 1 893 1212)" fill="url(#paint6_linear_102_174)"/>
<rect width="1372" height="783" transform="matrix(-1 0 0 1 1406 34)" fill="#C4C4C4"/>
<rect x="34" y="34" width="1372" height="783" fill="white"/>
<path d="M84 851L918 0H1416C1429.25 0 1440 10.7452 1440 24V851H84Z" fill="url(#paint7_linear_102_174)"/>
<defs>
<filter id="filter0_f_102_174" x="42" y="1188" width="1356.49" height="62.4758" filterUnits="userSpaceOnUse" color-interpolation-filters="sRGB">
<feFlood flood-opacity="0" result="BackgroundImageFix"/>
<feBlend mode="normal" in="SourceGraphic" in2="BackgroundImageFix" result="shape"/>
<feGaussianBlur stdDeviation="10" result="effect1_foregroundBlur_102_174"/>
</filter>
<filter id="filter1_f_102_174" x="231" y="1197" width="977.311" height="62.4758" filterUnits="userSpaceOnUse" color-interpolation-filters="sRGB">
<feFlood flood-opacity="0" result="BackgroundImageFix"/>
<feBlend mode="normal" in="SourceGraphic" in2="BackgroundImageFix" result="shape"/>
<feGaussianBlur stdDeviation="10" result="effect1_foregroundBlur_102_174"/>
</filter>
<filter id="filter2_f_102_174" x="523" y="1219" width="395" height="62" filterUnits="userSpaceOnUse" color-interpolation-filters="sRGB">
<feFlood flood-opacity="0" result="BackgroundImageFix"/>
<feBlend mode="normal" in="SourceGraphic" in2="BackgroundImageFix" result="shape"/>
<feGaussianBlur stdDeviation="10" result="effect1_foregroundBlur_102_174"/>
</filter>
<filter id="filter3_i_102_174" x="740" y="12" width="8" height="9" filterUnits="userSpaceOnUse" color-interpolation-filters="sRGB">
<feFlood flood-opacity="0" result="BackgroundImageFix"/>
<feBlend mode="normal" in="SourceGraphic" in2="BackgroundImageFix" result="shape"/>
<feColorMatrix in="SourceAlpha" type="matrix" values="0 0 0 0 0 0 0 0 0 0 0 0 0 0 0 0 0 0 127 0" result="hardAlpha"/>
<feOffset dy="-1"/>
<feGaussianBlur stdDeviation="3"/>
<feComposite in2="hardAlpha" operator="arithmetic" k2="-1" k3="1"/>
<feColorMatrix type="matrix" values="0 0 0 0 0.0392157 0 0 0 0 0.0431373 0 0 0 0 0.0509804 0 0 0 1 0"/>
<feBlend mode="normal" in2="shape" result="effect1_innerShadow_102_174"/>
</filter>
<linearGradient id="paint0_linear_102_174" x1="575" y1="1223" x2="575" y2="1230" gradientUnits="userSpaceOnUse">
<stop stop-color="#19191A"/>
<stop offset="1" stop-color="#636569"/>
</linearGradient>
<linearGradient id="paint1_linear_102_174" x1="865" y1="1223" x2="865" y2="1230" gradientUnits="userSpaceOnUse">
<stop stop-color="#19191A"/>
<stop offset="1" stop-color="#636569"/>
</linearGradient>
<linearGradient id="paint2_linear_102_174" x1="173" y1="0" x2="173" y2="223" gradientUnits="userSpaceOnUse">
<stop stop-color="#303236"/>
<stop offset="0.873392" stop-color="#8C8F93"/>
<stop offset="0.924622" stop-color="#BABABA"/>
<stop offset="0.957999" stop-color="#999B9E"/>
<stop offset="0.992152" stop-color="#4D4D4D"/>
</linearGradient>
<linearGradient id="paint3_linear_102_174" x1="1399.5" y1="-0.000109302" x2="483" y2="862.5" gradientUnits="userSpaceOnUse">
<stop stop-color="#28282A"/>
<stop offset="1" stop-color="#18191B"/>
</linearGradient>
<linearGradient id="paint4_linear_102_174" x1="720" y1="851" x2="720" y2="999" gradientUnits="userSpaceOnUse">
<stop stop-color="#535457"/>
<stop offset="1" stop-color="#43464C"/>
</linearGradient>
<radialGradient id="paint5_radial_102_174" cx="0" cy="0" r="1" gradientUnits="userSpaceOnUse" gradientTransform="translate(4 4) rotate(90) scale(4)">
<stop stop-color="#55A0FF"/>
<stop offset="0.513343" stop-color="#214D89"/>
<stop offset="1" stop-color="#10182A"/>
</radialGradient>
<linearGradient id="paint6_linear_102_174" x1="346" y1="15.0001" x2="-1.64163e-05" y2="16.0001" gradientUnits="userSpaceOnUse">
<stop stop-color="#727476"/>
<stop offset="0.0196622" stop-color="#B6B6B9"/>
<stop offset="0.0393102" stop-color="#66696D"/>
<stop offset="0.0913451" stop-color="#898A8F"/>
<stop offset="0.948172" stop-color="#898A8F"/>
<stop offset="0.977921" stop-color="#66696D"/>
<stop offset="0.991869" stop-color="#B6B6B9"/>
<stop offset="1" stop-color="#727476"/>
</linearGradient>
<linearGradient id="paint7_linear_102_174" x1="853.213" y1="34" x2="853.213" y2="820" gradientUnits="userSpaceOnUse">
<stop stop-color="white" stop-opacity="0.16"/>
<stop offset="1" stop-color="white" stop-opacity="0"/>
</linearGradient>
</defs>
</svg>
