<svg width="34" height="34" viewBox="0 0 34 34" fill="none" xmlns="http://www.w3.org/2000/svg">
<g clip-path="url(#clip0_10_6)">
<path d="M10.2224 10.6192C9.59214 10.6348 8.99102 10.888 8.5395 11.3281C8.08798 11.7682 7.81942 12.3626 7.78761 12.9923L7.68773 20.7698C7.70336 21.4001 7.95657 22.0012 8.39663 22.4528C8.8367 22.9043 9.43112 23.1728 10.0608 23.2047L15.293 23.2719C15.9233 23.2562 16.5244 23.003 16.9759 22.5629C17.4274 22.1229 17.696 21.5285 17.7278 20.8988L17.8277 13.1212C17.8121 12.4909 17.5589 11.8898 17.1188 11.4383C16.6787 10.9868 16.0843 10.7182 15.4546 10.6864L10.2224 10.6192Z" stroke="white" stroke-width="2" stroke-linecap="round" stroke-linejoin="round"/>
<path d="M12.0779 14.8153L12.0234 19.0576" stroke="white" stroke-width="2" stroke-linecap="round" stroke-linejoin="round"/>
<path d="M17.8848 14.1827L27.5204 14.3065C28.0508 14.3132 28.5567 14.5303 28.927 14.9101L30.443 16.4655C30.6281 16.6554 30.7302 16.9111 30.7268 17.1763C30.7234 17.4415 30.6148 17.6945 30.4248 17.8796L28.2765 19.9735C28.0865 20.1586 27.8308 20.2607 27.5656 20.2573C27.3004 20.2539 27.0475 20.1453 26.8624 19.9553L26.1644 19.2392C25.9793 19.0493 25.7263 18.9407 25.4611 18.9372C25.1959 18.9338 24.9402 19.0359 24.7503 19.221L24.0342 19.919C23.8442 20.1041 23.5885 20.2062 23.3234 20.2028C23.0582 20.1994 22.8052 20.0908 22.6201 19.9008L21.9221 19.1847C21.737 18.9948 21.484 18.8862 21.2188 18.8828C20.9536 18.8794 20.6979 18.9814 20.508 19.1666L20.3848 19.2866C20.0049 19.6567 19.4936 19.8608 18.9632 19.8539L17.8121 19.8391" stroke="white" stroke-width="2" stroke-linecap="round" stroke-linejoin="round"/>
</g>
<defs>
<clipPath id="clip0_10_6">
<rect width="24" height="24" fill="white" transform="matrix(-0.716129 0.697968 0.697968 0.716129 17.2179 0.030838)"/>
</clipPath>
</defs>
</svg>
