                <svg
                width="15"
                height="16"
                viewBox="0 0 15 16"
                fill="none"
                xmlns="http://www.w3.org/2000/svg"
              >
                <path
                  d="M12.0313 2.21875H2.96875C2.27839 2.21875 1.71875 2.77839 1.71875 3.46875V12.5313C1.71875 13.2216 2.27839 13.7813 2.96875 13.7813H12.0313C12.7216 13.7813 13.2813 13.2216 13.2813 12.5313V3.46875C13.2813 2.77839 12.7216 2.21875 12.0313 2.21875Z"
                  fill="black"
                  stroke="black"
                  stroke-width="0.8"
                  stroke-linecap="round"
                  stroke-linejoin="round"
                />
                <path
                  d="M9.93877 4.54248V5.49217H11.7328V11.4575H3.26721V5.49217H5.06127V4.54248H9.93877Z"
                  fill="white"
                />
                <path
                  d="M8.1944 10.0872V11.4575M6.80565 10.0872V11.4575M5.41909 10.0872V11.4575M9.58846 10.0872V11.4575M9.93877 4.54248V5.49217H11.7328V11.4575H3.26721V5.49217H5.06127V4.54248H9.93877Z"
                  stroke="black"
                  stroke-width="0.5"
                  stroke-linecap="round"
                  stroke-linejoin="round"
                />
              </svg>